<svg xmlns="http://www.w3.org/2000/svg" x="0px" y="0px" width="100" height="100" viewBox="0 0 64 64">
<path fill="#ed7899" d="M25.173,5.006C21.365,5.347,19.002,9.099,19,14.824c0,4.295,7.128,16.409,11.043,23.044 C29.937,15.14,29.206,12.026,25.173,5.006z M25.157,4.979L25.157,4.979L25.157,4.979z"></path><path fill="#ed7899" d="M26.003,40.069l0.003,0.006l0.853-0.523L26.003,40.069L26.003,40.069z M10.2,14.004 c-2.486,2.081-3.102,5.02-3.188,7.117c-0.167,4.033,1.393,7.802,3.02,9.44c1.131,1.116,4.375,2.913,8.132,4.993 c2.369,1.313,5.055,2.8,7.788,4.43L10.2,14.004z"></path><path fill="#ed7899" d="M24.025,44.139c0.005,0.007,0.009,0.012,0.013,0.016l0.468-0.886L24.025,44.139z M2.007,32.003 C3.004,43.421,12.402,44,14.28,44h9.481L2.074,32.011C2.051,31.999,2.025,31.999,2.007,32.003z"></path><path fill="#ed7899" d="M8.961,48c0.918,3.519,2.582,5,5.608,5c3.496,0,7.015-1.833,9.412-4.903 c0.025-0.033,0.02-0.072,0.012-0.097H8.961z"></path><path fill="#ed7899" d="M38.817,5.006c-4.024,6.765-4.758,9.856-4.816,32.788C37.672,31.573,45,19.1,45,14.825 C44.998,9.096,42.632,5.343,38.817,5.006z"></path><path fill="#ed7899" d="M37.997,40.07l-0.003,0.005l0.561,0.771l-0.51-0.855L37.997,40.07z M53.845,14.002L38.049,39.983 c2.733-1.629,5.419-3.116,7.788-4.429c3.757-2.08,7.001-3.877,8.139-5.001c1.62-1.631,3.18-5.399,3.013-9.433 C56.901,19.023,56.286,16.085,53.845,14.002z"></path><path fill="#ed7899" d="M61.97,32c-0.015,0-0.029,0.003-0.044,0.011L40.165,44.04L49.72,44 c1.878,0,11.275-0.58,12.273-11.997C61.986,32.001,61.978,32,61.97,32z"></path><path fill="#ed7899" d="M40.007,48c-0.008,0.025-0.014,0.063,0.013,0.098C42.416,51.167,45.935,53,49.431,53 c3.026,0,4.69-1.481,5.566-4.954L40.007,48z"></path><g><path fill="#8d6c9f" d="M24.643,6.098c3.403,6.033,4.203,9.509,4.338,27.983C25.294,27.734,20,18.185,20,14.824 C20.001,10.003,21.762,6.742,24.643,6.098 M25.238,4c-0.02,0-0.04,0.001-0.06,0.002C21.086,4.315,18.002,8.107,18,14.824 c0,4.155,5.666,14.205,11.278,23.716c0.187,0.318,0.485,0.46,0.78,0.46c0.475,0,0.944-0.368,0.942-0.965 c-0.061-22.976-0.82-26.327-4.977-33.555C25.859,4.194,25.557,4,25.238,4L25.238,4z"></path><path fill="#8d6c9f" d="M9.987,15.581l13.075,21.568c-1.546-0.879-3.037-1.705-4.421-2.471 c-3.536-1.958-6.875-3.808-7.901-4.82c-1.438-1.449-2.883-4.989-2.73-8.696C8.079,19.528,8.494,17.338,9.987,15.581 M10.169,13 c-0.235,0-0.472,0.078-0.664,0.241C3.814,18.099,6.021,27.94,9.321,31.266c1.977,1.952,8.862,5.25,16.124,9.581 C25.624,40.953,25.808,41,25.985,41c0.709,0,1.295-0.753,0.873-1.449L11.056,13.486C10.865,13.171,10.519,13,10.169,13L10.169,13z"></path><path fill="#8d6c9f" d="M3.266,33.813L19.885,43H14.28C12.016,43,4.918,42.3,3.266,33.813 M2.031,31 c-0.561,0-1.076,0.43-1.028,1.003C1.857,42.239,9.218,45,14.28,45h9.696c1.035,0,1.415-1.242,0.53-1.731L2.557,31.136 C2.388,31.042,2.207,31,2.031,31L2.031,31z"></path><path fill="#8d6c9f" d="M21.795,49c-2.065,1.905-4.656,3-7.225,3c-2.177,0-3.435-0.861-4.23-3H21.795 M24.043,47H8.961 c-0.624,0-1.092,0.64-0.928,1.29C8.852,51.536,10.546,54,14.569,54c3.893,0,7.677-2.057,10.2-5.289 C25.297,48.035,24.862,47,24.043,47L24.043,47z"></path><path fill="#8d6c9f" d="M39.337,6.095C42.23,6.728,43.999,9.992,44,14.826c0,3.361-5.295,12.911-8.983,19.258 C35.146,15.366,35.941,11.915,39.337,6.095 M38.754,4c-0.315,0-0.613,0.188-0.779,0.467C33.738,11.581,33.053,15.042,33,38.035 C32.999,38.633,33.468,39,33.942,39c0.295,0,0.593-0.142,0.78-0.46C40.334,29.03,46,18.98,46,14.826 C45.998,8.102,42.91,4.31,38.813,4.002C38.793,4.001,38.773,4,38.754,4L38.754,4z"></path><path fill="#8d6c9f" d="M54.013,15.581c1.493,1.757,1.909,3.947,1.976,5.581c0.153,3.707-1.292,7.247-2.715,8.681 c-1.04,1.027-4.38,2.876-7.915,4.834c-1.384,0.766-2.875,1.592-4.421,2.471L54.013,15.581 M53.831,13 c-0.349,0-0.696,0.171-0.887,0.486L37.142,39.551C36.72,40.247,37.306,41,38.015,41c0.177,0,0.361-0.047,0.54-0.153 c7.263-4.331,14.147-7.629,16.124-9.581c3.3-3.326,5.507-13.167-0.185-18.025C54.303,13.078,54.066,13,53.831,13L53.831,13z"></path><path fill="#8d6c9f" d="M60.734,33.813C59.082,42.3,51.984,43,49.72,43h-5.605L60.734,33.813 M61.969,31 c-0.176,0-0.357,0.042-0.526,0.136L39.495,43.269C38.609,43.758,38.989,45,40.024,45h9.696c5.062,0,12.422-2.761,13.277-12.997 C63.045,31.43,62.53,31,61.969,31L61.969,31z"></path><path fill="#8d6c9f" d="M53.661,49c-0.795,2.139-2.053,3-4.23,3c-2.569,0-5.16-1.095-7.225-3H53.661 M55.039,47H39.957 c-0.819,0-1.255,1.035-0.727,1.711C41.754,51.943,45.538,54,49.431,54c4.024,0,5.717-2.464,6.536-5.71 C56.131,47.64,55.664,47,55.039,47L55.039,47z"></path><path fill="#8d6c9f" d="M49,60c-0.553,0-1-0.447-1-1v-2c0-0.553,0.447-1,1-1s1,0.447,1,1v2C50,59.553,49.553,60,49,60z"></path><path fill="#8d6c9f" d="M44.031,59.371c-0.103,0-0.206-0.016-0.31-0.049c-0.524-0.171-0.813-0.735-0.642-1.261l0.618-1.901 c0.171-0.524,0.732-0.813,1.261-0.642c0.524,0.171,0.813,0.735,0.642,1.261l-0.618,1.901 C44.845,59.103,44.453,59.371,44.031,59.371z"></path><path fill="#8d6c9f" d="M39.499,57.238c-0.204,0-0.409-0.063-0.587-0.191c-0.446-0.324-0.546-0.949-0.221-1.396l1.176-1.618 c0.324-0.447,0.948-0.546,1.396-0.221c0.446,0.324,0.546,0.949,0.221,1.396l-1.176,1.618 C40.113,57.096,39.809,57.238,39.499,57.238z"></path><path fill="#8d6c9f" d="M35.851,53.809c-0.31,0-0.614-0.143-0.811-0.412c-0.324-0.447-0.225-1.072,0.222-1.397l1.618-1.175 c0.449-0.325,1.072-0.225,1.397,0.222c0.324,0.447,0.225,1.072-0.222,1.397l-1.618,1.175C36.26,53.747,36.054,53.809,35.851,53.809 z"></path><path fill="#8d6c9f" d="M15,60c-0.553,0-1-0.447-1-1v-2c0-0.553,0.447-1,1-1s1,0.447,1,1v2C16,59.553,15.553,60,15,60z"></path><path fill="#8d6c9f" d="M19.969,59.371c-0.422,0-0.813-0.269-0.951-0.69L18.4,56.78c-0.171-0.525,0.117-1.09,0.642-1.261 c0.529-0.172,1.09,0.117,1.261,0.642l0.618,1.901c0.171,0.525-0.117,1.09-0.642,1.261C20.175,59.355,20.071,59.371,19.969,59.371z"></path><path fill="#8d6c9f" d="M24.501,57.238c-0.31,0-0.614-0.143-0.81-0.412l-1.176-1.618c-0.325-0.447-0.226-1.072,0.221-1.396 c0.447-0.325,1.072-0.227,1.396,0.221l1.176,1.618c0.325,0.447,0.226,1.072-0.221,1.396C24.91,57.176,24.705,57.238,24.501,57.238z"></path><path fill="#8d6c9f" d="M28.149,53.809c-0.203,0-0.409-0.062-0.587-0.19l-1.618-1.175c-0.446-0.325-0.546-0.95-0.222-1.397 c0.324-0.446,0.948-0.548,1.397-0.222L28.737,52c0.446,0.325,0.546,0.95,0.222,1.397C28.764,53.666,28.459,53.809,28.149,53.809z"></path></g>
</svg>